<?xml version="1.0" encoding="UTF-8" standalone="no"?>
<!-- Created with Inkscape (http://www.inkscape.org/) -->

<svg
   xmlns:dc="http://purl.org/dc/elements/1.1/"
   xmlns:cc="http://creativecommons.org/ns#"
   xmlns:rdf="http://www.w3.org/1999/02/22-rdf-syntax-ns#"
   xmlns:svg="http://www.w3.org/2000/svg"
   xmlns="http://www.w3.org/2000/svg"
   xmlns:sodipodi="http://sodipodi.sourceforge.net/DTD/sodipodi-0.dtd"
   xmlns:inkscape="http://www.inkscape.org/namespaces/inkscape"
   width="173.35895"
   height="126.3488"
   id="svg2"
   version="1.1"
   inkscape:version="0.48.3.1 r9886"
   sodipodi:docname="cort1.pdf">
  <sodipodi:namedview
     id="base"
     pagecolor="#ffffff"
     bordercolor="#666666"
     borderopacity="1.0"
     inkscape:pageopacity="0.0"
     inkscape:pageshadow="2"
     inkscape:zoom="2"
     inkscape:cx="212.43307"
     inkscape:cy="68.221099"
     inkscape:document-units="px"
     inkscape:current-layer="layer1"
     showgrid="false"
     fit-margin-top="0"
     fit-margin-left="0"
     fit-margin-right="0"
     fit-margin-bottom="0"
     inkscape:window-width="1022"
     inkscape:window-height="579"
     inkscape:window-x="0"
     inkscape:window-y="19"
     inkscape:window-maximized="0" />
  <defs
     id="defs4">
    <marker
       inkscape:stockid="Arrow2Lend"
       orient="auto"
       refY="0"
       refX="0"
       id="Arrow2Lend"
       style="overflow:visible">
      <path
         id="path3879"
         style="fill-rule:evenodd;stroke-width:0.625;stroke-linejoin:round"
         d="M 8.7185878,4.0337352 -2.2072895,0.01601326 8.7185884,-4.0017078 c -1.7454984,2.3720609 -1.7354408,5.6174519 -6e-7,8.035443 z"
         transform="matrix(-1.1,0,0,-1.1,-1.1,0)"
         inkscape:connector-curvature="0" />
    </marker>
    <marker
       inkscape:stockid="Arrow1Mstart"
       orient="auto"
       refY="0"
       refX="0"
       id="Arrow1Mstart"
       style="overflow:visible">
      <path
         id="path3864"
         d="M 0,0 5,-5 -12.5,0 5,5 0,0 z"
         style="fill-rule:evenodd;stroke:#000000;stroke-width:1pt"
         transform="matrix(0.4,0,0,0.4,4,0)"
         inkscape:connector-curvature="0" />
    </marker>
    <marker
       inkscape:stockid="Arrow2Sstart"
       orient="auto"
       refY="0"
       refX="0"
       id="Arrow2Sstart"
       style="overflow:visible">
      <path
         id="path3888"
         style="fill-rule:evenodd;stroke-width:0.625;stroke-linejoin:round"
         d="M 8.7185878,4.0337352 -2.2072895,0.01601326 8.7185884,-4.0017078 c -1.7454984,2.3720609 -1.7354408,5.6174519 -6e-7,8.035443 z"
         transform="matrix(0.3,0,0,0.3,-0.69,0)"
         inkscape:connector-curvature="0" />
    </marker>
    <marker
       inkscape:stockid="Arrow1Mend"
       orient="auto"
       refY="0"
       refX="0"
       id="Arrow1Mend"
       style="overflow:visible">
      <path
         id="path3867"
         d="M 0,0 5,-5 -12.5,0 5,5 0,0 z"
         style="fill-rule:evenodd;stroke:#000000;stroke-width:1pt"
         transform="matrix(-0.4,0,0,-0.4,-4,0)"
         inkscape:connector-curvature="0" />
    </marker>
    <marker
       inkscape:stockid="Arrow1Lstart"
       orient="auto"
       refY="0"
       refX="0"
       id="Arrow1Lstart"
       style="overflow:visible">
      <path
         id="path3858"
         d="M 0,0 5,-5 -12.5,0 5,5 0,0 z"
         style="fill-rule:evenodd;stroke:#000000;stroke-width:1pt"
         transform="matrix(0.8,0,0,0.8,10,0)"
         inkscape:connector-curvature="0" />
    </marker>
    <marker
       inkscape:stockid="Arrow1Lend"
       orient="auto"
       refY="0"
       refX="0"
       id="Arrow1Lend"
       style="overflow:visible">
      <path
         id="path3861"
         d="M 0,0 5,-5 -12.5,0 5,5 0,0 z"
         style="fill-rule:evenodd;stroke:#000000;stroke-width:1pt"
         transform="matrix(-0.8,0,0,-0.8,-10,0)"
         inkscape:connector-curvature="0" />
    </marker>
    <marker
       inkscape:stockid="Arrow2Lend"
       orient="auto"
       refY="0"
       refX="0"
       id="Arrow2Lend-6"
       style="overflow:visible">
      <path
         id="path3879-8"
         style="fill-rule:evenodd;stroke-width:0.625;stroke-linejoin:round"
         d="M 8.7185878,4.0337352 -2.2072895,0.01601326 8.7185884,-4.0017078 c -1.7454984,2.3720609 -1.7354408,5.6174519 -6e-7,8.035443 z"
         transform="matrix(-1.1,0,0,-1.1,-1.1,0)"
         inkscape:connector-curvature="0" />
    </marker>
    <marker
       inkscape:stockid="Arrow2Lend"
       orient="auto"
       refY="0"
       refX="0"
       id="marker3235"
       style="overflow:visible">
      <path
         id="path3237"
         style="fill-rule:evenodd;stroke-width:0.625;stroke-linejoin:round"
         d="M 8.7185878,4.0337352 -2.2072895,0.01601326 8.7185884,-4.0017078 c -1.7454984,2.3720609 -1.7354408,5.6174519 -6e-7,8.035443 z"
         transform="matrix(-1.1,0,0,-1.1,-1.1,0)"
         inkscape:connector-curvature="0" />
    </marker>
    <marker
       inkscape:stockid="Arrow2Lend"
       orient="auto"
       refY="0"
       refX="0"
       id="marker3239"
       style="overflow:visible">
      <path
         id="path3241"
         style="fill-rule:evenodd;stroke-width:0.625;stroke-linejoin:round"
         d="M 8.7185878,4.0337352 -2.2072895,0.01601326 8.7185884,-4.0017078 c -1.7454984,2.3720609 -1.7354408,5.6174519 -6e-7,8.035443 z"
         transform="matrix(-1.1,0,0,-1.1,-1.1,0)"
         inkscape:connector-curvature="0" />
    </marker>
    <marker
       inkscape:stockid="Arrow2Lend"
       orient="auto"
       refY="0"
       refX="0"
       id="marker3243"
       style="overflow:visible">
      <path
         id="path3245"
         style="fill-rule:evenodd;stroke-width:0.625;stroke-linejoin:round"
         d="M 8.7185878,4.0337352 -2.2072895,0.01601326 8.7185884,-4.0017078 c -1.7454984,2.3720609 -1.7354408,5.6174519 -6e-7,8.035443 z"
         transform="matrix(-1.1,0,0,-1.1,-1.1,0)"
         inkscape:connector-curvature="0" />
    </marker>
    <marker
       inkscape:stockid="Arrow2Lend"
       orient="auto"
       refY="0"
       refX="0"
       id="marker3247"
       style="overflow:visible">
      <path
         id="path3249"
         style="fill-rule:evenodd;stroke-width:0.625;stroke-linejoin:round"
         d="M 8.7185878,4.0337352 -2.2072895,0.01601326 8.7185884,-4.0017078 c -1.7454984,2.3720609 -1.7354408,5.6174519 -6e-7,8.035443 z"
         transform="matrix(-1.1,0,0,-1.1,-1.1,0)"
         inkscape:connector-curvature="0" />
    </marker>
    <marker
       inkscape:stockid="marker3247I"
       orient="auto"
       refY="0"
       refX="0"
       id="marker3247I"
       style="overflow:visible">
      <path
         id="path5069"
         style="fill:#ff0000;fill-rule:evenodd;stroke:#ff0000;stroke-width:0.625;stroke-linejoin:round"
         d="M 8.7185878,4.0337352 -2.2072895,0.01601326 8.7185884,-4.0017078 c -1.7454984,2.3720609 -1.7354408,5.6174519 -6e-7,8.035443 z"
         transform="matrix(-1.1,0,0,-1.1,-1.1,0)"
         inkscape:connector-curvature="0" />
    </marker>
    <marker
       inkscape:stockid="marker3247v"
       orient="auto"
       refY="0"
       refX="0"
       id="marker3247v"
       style="overflow:visible">
      <path
         id="path5465"
         style="fill:#ff0000;fill-rule:evenodd;stroke:#ff0000;stroke-width:0.625;stroke-linejoin:round"
         d="M 8.7185878,4.0337352 -2.2072895,0.01601326 8.7185884,-4.0017078 c -1.7454984,2.3720609 -1.7354408,5.6174519 -6e-7,8.035443 z"
         transform="matrix(-1.1,0,0,-1.1,-1.1,0)"
         inkscape:connector-curvature="0" />
    </marker>
    <marker
       inkscape:stockid="marker3247n"
       orient="auto"
       refY="0"
       refX="0"
       id="marker3247n"
       style="overflow:visible">
      <path
         id="path6276"
         style="fill:#ff0000;fill-rule:evenodd;stroke:#ff0000;stroke-width:0.625;stroke-linejoin:round"
         d="M 8.7185878,4.0337352 -2.2072895,0.01601326 8.7185884,-4.0017078 c -1.7454984,2.3720609 -1.7354408,5.6174519 -6e-7,8.035443 z"
         transform="matrix(-1.1,0,0,-1.1,-1.1,0)"
         inkscape:connector-curvature="0" />
    </marker>
    <marker
       inkscape:stockid="marker32477"
       orient="auto"
       refY="0"
       refX="0"
       id="marker32477"
       style="overflow:visible">
      <path
         id="path6679"
         style="fill:#ff0000;fill-rule:evenodd;stroke:#ff0000;stroke-width:0.625;stroke-linejoin:round"
         d="M 8.7185878,4.0337352 -2.2072895,0.01601326 8.7185884,-4.0017078 c -1.7454984,2.3720609 -1.7354408,5.6174519 -6e-7,8.035443 z"
         transform="matrix(-1.1,0,0,-1.1,-1.1,0)"
         inkscape:connector-curvature="0" />
    </marker>
  </defs>
  <metadata
     id="metadata7">
    <rdf:RDF>
      <cc:Work
         rdf:about="">
        <dc:format>image/svg+xml</dc:format>
        <dc:type
           rdf:resource="http://purl.org/dc/dcmitype/StillImage" />
        <dc:title></dc:title>
      </cc:Work>
    </rdf:RDF>
  </metadata>
  <g
     inkscape:label="Layer 1"
     inkscape:groupmode="layer"
     id="layer1"
     transform="translate(-199.77557,-438.2235)">
    <path
       sodipodi:type="arc"
       style="fill:none;stroke:#000000;stroke-width:1.07477331;stroke-miterlimit:4;stroke-opacity:1;stroke-dasharray:none"
       id="path2985"
       sodipodi:cx="233.34525"
       sodipodi:cy="484.65646"
       sodipodi:rx="11.111678"
       sodipodi:ry="10.101525"
       d="m 244.45692,484.65646 c 0,5.57892 -4.97486,10.10153 -11.11167,10.10153 -6.13682,0 -11.11168,-4.52261 -11.11168,-10.10153 0,-5.57891 4.97486,-10.10152 11.11168,-10.10152 6.13681,0 11.11167,4.52261 11.11167,10.10152 z"
       transform="matrix(0.85227273,0,0,0.85227273,10.829958,84.104706)" />
    <text
       xml:space="preserve"
       style="font-size:40px;font-style:normal;font-weight:normal;line-height:125%;letter-spacing:0px;word-spacing:0px;fill:#000000;fill-opacity:1;stroke:none;font-family:Sans"
       x="207.49017"
       y="500.44217"
       id="text3755"
       sodipodi:linespacing="125%"><tspan
         sodipodi:role="line"
         id="tspan3757"
         x="207.49017"
         y="500.44217"
         style="font-size:12px">s</tspan></text>
    <path
       sodipodi:type="arc"
       style="fill:none;stroke:#000000;stroke-width:1.07477331;stroke-miterlimit:4;stroke-opacity:1;stroke-dasharray:none"
       id="path2985-6"
       sodipodi:cx="233.34525"
       sodipodi:cy="484.65646"
       sodipodi:rx="11.111678"
       sodipodi:ry="10.101525"
       d="m 244.45692,484.65646 c 0,5.57892 -4.97486,10.10153 -11.11167,10.10153 -6.13682,0 -11.11168,-4.52261 -11.11168,-10.10153 0,-5.57891 4.97486,-10.10152 11.11168,-10.10152 6.13681,0 11.11167,4.52261 11.11167,10.10152 z"
       transform="matrix(0.85227273,0,0,0.85227273,132.83441,84.104441)" />
    <text
       xml:space="preserve"
       style="font-size:40px;font-style:normal;font-weight:normal;line-height:125%;letter-spacing:0px;word-spacing:0px;fill:#000000;fill-opacity:1;stroke:none;font-family:Sans"
       x="330.29529"
       y="500.44196"
       id="text3755-4"
       sodipodi:linespacing="125%"><tspan
         sodipodi:role="line"
         id="tspan3757-4"
         x="330.29529"
         y="500.44196"
         style="font-size:12px">t</tspan></text>
    <path
       sodipodi:type="arc"
       style="fill:none;stroke:#000000;stroke-width:1.07477331;stroke-miterlimit:4;stroke-opacity:1;stroke-dasharray:none"
       id="path2985-3"
       sodipodi:cx="233.34525"
       sodipodi:cy="484.65646"
       sodipodi:rx="11.111678"
       sodipodi:ry="10.101525"
       d="m 244.45692,484.65646 c 0,5.57892 -4.97486,10.10153 -11.11167,10.10153 -6.13682,0 -11.11168,-4.52261 -11.11168,-10.10153 0,-5.57891 4.97486,-10.10152 11.11168,-10.10152 6.13681,0 11.11167,4.52261 11.11167,10.10152 z"
       transform="matrix(0.85227273,0,0,0.85227273,71.626211,34.231266)" />
    <text
       xml:space="preserve"
       style="font-size:40px;font-style:normal;font-weight:normal;line-height:125%;letter-spacing:0px;word-spacing:0px;fill:#000000;fill-opacity:1;stroke:none;font-family:Sans"
       x="267.3866"
       y="450.56873"
       id="text3755-8"
       sodipodi:linespacing="125%"><tspan
         sodipodi:role="line"
         id="tspan3757-9"
         x="267.3866"
         y="450.56873"
         style="font-size:12px">1</tspan></text>
    <path
       sodipodi:type="arc"
       style="fill:none;stroke:#000000;stroke-width:1.07477331;stroke-miterlimit:4;stroke-opacity:1;stroke-dasharray:none"
       id="path2985-3-6"
       sodipodi:cx="233.34525"
       sodipodi:cy="484.65646"
       sodipodi:rx="11.111678"
       sodipodi:ry="10.101525"
       d="m 244.45692,484.65646 c 0,5.57892 -4.97486,10.10153 -11.11167,10.10153 -6.13682,0 -11.11168,-4.52261 -11.11168,-10.10153 0,-5.57891 4.97486,-10.10152 11.11168,-10.10152 6.13681,0 11.11167,4.52261 11.11167,10.10152 z"
       transform="matrix(0.85227273,0,0,0.85227273,71.625958,142.44556)" />
    <text
       xml:space="preserve"
       style="font-size:40px;font-style:normal;font-weight:normal;line-height:125%;letter-spacing:0px;word-spacing:0px;fill:#000000;fill-opacity:1;stroke:none;font-family:Sans"
       x="267.3866"
       y="558.78302"
       id="text3755-8-0"
       sodipodi:linespacing="125%"><tspan
         sodipodi:role="line"
         id="tspan3757-9-7"
         x="267.3866"
         y="558.78302"
         style="font-size:12px">2</tspan></text>
    <path
       style="fill:none;stroke:#000000;stroke-width:0.65819341;stroke-linecap:butt;stroke-linejoin:miter;stroke-miterlimit:4;stroke-opacity:1;stroke-dasharray:none;marker-end:url(#Arrow2Lend)"
       d="m 217.20047,491.23314 c 44.98309,-38.04889 45.16088,-38.2108 45.16088,-38.2108"
       id="path3852"
       inkscape:connector-curvature="0"
       sodipodi:nodetypes="cc" />
    <text
       xml:space="preserve"
       style="font-size:40px;font-style:normal;font-weight:normal;line-height:125%;letter-spacing:0px;word-spacing:0px;fill:#000000;fill-opacity:1;stroke:none;font-family:Sans"
       x="208.21429"
       y="454.50504"
       id="text5810"
       sodipodi:linespacing="125%"><tspan
         sodipodi:role="line"
         id="tspan5812"
         x="208.21429"
         y="454.50504" /></text>
    <path
       style="fill:none;stroke:#000000;stroke-width:0.64373076;stroke-linecap:butt;stroke-linejoin:miter;stroke-miterlimit:4;stroke-opacity:1;stroke-dasharray:none;marker-end:url(#Arrow2Lend)"
       d="m 216.67238,503.58685 c 45.17757,45.91042 45.31098,46.04121 45.31098,46.04121"
       id="path5898"
       inkscape:connector-curvature="0"
       sodipodi:nodetypes="cc" />
    <path
       style="fill:none;stroke:#000000;stroke-width:0.66109258;stroke-linecap:butt;stroke-linejoin:miter;stroke-miterlimit:4;stroke-opacity:1;stroke-dasharray:none;marker-end:url(#Arrow2Lend)"
       d="m 278.09267,550.12793 c 45.44382,-46.57466 45.85103,-46.83056 45.85103,-46.83056 l -3.74627,3.49737 3.9906,-3.75327"
       id="path6092"
       inkscape:connector-curvature="0"
       sodipodi:nodetypes="cccc" />
    <path
       style="fill:none;stroke:#000000;stroke-width:0.65100002;stroke-linecap:butt;stroke-linejoin:miter;stroke-miterlimit:4;stroke-opacity:1;stroke-dasharray:none;marker-end:url(#Arrow2Lend)"
       d="m 270.39712,547.16249 c 0,-90.73305 0,-90.73305 0,-90.73305"
       id="path6286"
       inkscape:connector-curvature="0" />
    <path
       style="fill:none;stroke:#000000;stroke-width:0.65100002;stroke-linecap:butt;stroke-linejoin:miter;stroke-miterlimit:4;stroke-opacity:1;stroke-dasharray:none;marker-end:url(#Arrow2Lend)"
       d="m 278.31668,451.89183 c 44.78212,39.5373 44.78212,39.5373 44.78212,39.5373"
       id="path6480"
       inkscape:connector-curvature="0" />
    <text
       xml:space="preserve"
       style="font-size:12px;font-style:normal;font-weight:normal;line-height:125%;letter-spacing:0px;word-spacing:0px;fill:#000000;fill-opacity:1;stroke:none;font-family:Sans"
       x="220.48985"
       y="471.00089"
       id="text6750"
       sodipodi:linespacing="125%"><tspan
         sodipodi:role="line"
         id="tspan6752"
         x="220.48985"
         y="471.00089">3/\textbf{<tspan
   style="font-weight:bold;-inkscape-font-specification:Sans Bold"
   id="tspan6959">4}</tspan></tspan></text>
    <text
       xml:space="preserve"
       style="font-size:12px;font-style:normal;font-weight:normal;line-height:125%;letter-spacing:0px;word-spacing:0px;fill:#000000;fill-opacity:1;stroke:none;font-family:Sans"
       x="221.2047"
       y="537.89734"
       id="text6750-2"
       sodipodi:linespacing="125%"><tspan
         sodipodi:role="line"
         id="tspan6752-0"
         x="221.2047"
         y="537.89734">2/\textbf{2}</tspan></text>
    <text
       xml:space="preserve"
       style="font-size:12px;font-style:normal;font-weight:normal;line-height:125%;letter-spacing:0px;word-spacing:0px;fill:#000000;fill-opacity:1;stroke:none;font-family:Sans"
       x="247.62878"
       y="501.96881"
       id="text6750-2-7"
       sodipodi:linespacing="125%"><tspan
         sodipodi:role="line"
         id="tspan6752-0-7"
         x="247.62878"
         y="501.96881">2/\textbf{3}</tspan></text>
    <text
       xml:space="preserve"
       style="font-size:12px;font-style:normal;font-weight:normal;line-height:125%;letter-spacing:0px;word-spacing:0px;fill:#000000;fill-opacity:1;stroke:none;font-family:Sans"
       x="300.43726"
       y="471.61163"
       id="text6750-2-7-9"
       sodipodi:linespacing="125%"><tspan
         sodipodi:role="line"
         id="tspan6752-0-7-6"
         x="300.43726"
         y="471.61163">5/\textbf{5}</tspan></text>
    <text
       xml:space="preserve"
       style="font-size:12px;font-style:normal;font-weight:normal;line-height:125%;letter-spacing:0px;word-spacing:0px;fill:#000000;fill-opacity:1;stroke:none;font-family:Sans"
       x="300.17212"
       y="537.24683"
       id="text6750-2-7-9-0"
       sodipodi:linespacing="125%"><tspan
         sodipodi:role="line"
         id="tspan6752-0-7-6-3"
         x="300.17212"
         y="537.24683">0/\textbf{1}</tspan></text>
    <path
       style="fill:#00ff00;fill-opacity:0.32195123;stroke:#000000;stroke-width:0;stroke-linejoin:miter;stroke-miterlimit:100;stroke-opacity:1;stroke-dasharray:none"
       d="m 130.52234,66.953109 c -1.8914,-0.30273 -3.34861,-0.966087 -4.84481,-2.205476 -0.7178,-0.594593 -1.5251,-1.654183 -1.97495,-2.592134 -0.81355,-1.696259 -0.9506,-3.719083 -0.373,-5.505207 0.18394,-0.568804 0.62244,-1.456435 0.99093,-2.005867 0.36179,-0.539457 1.62867,-1.784635 2.21396,-2.176048 3.69336,-2.469932 8.72518,-2.097426 11.86717,0.878529 2.44123,2.312224 3.1571,5.616366 1.85947,8.582555 -0.39545,0.903945 -0.91568,1.644852 -1.71376,2.440716 -1.46315,1.45908 -3.13063,2.276009 -5.27386,2.58375 -0.78153,0.112219 -2.04726,0.111842 -2.75115,-8.21e-4 l 0,3e-6 z m 4.45099,-5.168182 0,-0.465273 -0.84647,-0.02871 c -1.40629,-0.04769 -1.36324,0.03859 -1.36324,-2.732088 l 0,-2.0539 1.10485,0 1.10486,0 0,-0.441942 0,-0.441942 -1.10486,0 -1.10485,0 0,-0.91545 0,-0.915451 -0.56821,0 -0.56821,0 0,0.915451 0,0.91545 -0.41038,0 -0.41037,0 0,0.441942 0,0.441942 0.40673,0 0.40673,0 0.0194,2.257059 0.0194,2.25706 0.16551,0.352955 c 0.31955,0.681417 0.78534,0.859334 2.28095,0.871251 l 0.8681,0.0069 0,-0.465273 z"
       id="path6917"
       inkscape:connector-curvature="0"
       transform="translate(199.77557,438.2235)" />
    <path
       style="fill:#00ffff;fill-opacity:0.21164018;stroke:#000000;stroke-width:0;stroke-linejoin:miter;stroke-miterlimit:100;stroke-opacity:1;stroke-dasharray:none"
       d="M 8.4962511,67.022772 C 4.9752224,66.471573 2.0974862,64.073055 1.1559993,60.904863 c -0.30230561,-1.017287 -0.30230561,-2.897054 0,-3.914341 1.4460097,-4.865958 6.9673976,-7.440136 12.0787827,-5.631361 1.362834,0.482268 2.283439,1.062806 3.328433,2.098925 1.578668,1.565262 2.220365,2.981351 2.316659,5.112377 0.09141,2.022951 -0.34316,3.435169 -1.546333,5.02509 -1.896772,2.506473 -5.58414,3.936483 -8.8372899,3.427219 l 0,0 z M 11.775686,62.217584 C 12.89107,61.91291 13.491571,61.046166 13.298884,60.019052 13.144225,59.194649 12.735916,58.937335 10.602633,58.319892 9.8985609,58.11611 9.6498513,57.982645 9.5448878,57.752275 9.3462297,57.316268 9.5135268,56.834727 9.9403431,56.614011 c 0.4693279,-0.242698 1.7912849,-0.241978 2.4666879,0.0013 0.277792,0.100078 0.519282,0.182816 0.536644,0.183862 0.01736,10e-4 0.03157,-0.198379 0.03157,-0.443166 0,-0.544668 -0.275394,-0.680717 -1.578363,-0.779737 -1.6729267,-0.127135 -2.8043574,0.497742 -2.9306933,1.618591 -0.129372,1.147784 0.4356835,1.717899 2.1135623,2.132488 1.246682,0.308044 1.584421,0.513165 1.708521,1.037648 0.06526,0.275798 0.0056,0.41985 -0.300576,0.726047 -0.353056,0.353056 -0.449556,0.381985 -1.274227,0.381985 -0.586509,0 -1.1198573,-0.08651 -1.5565088,-0.252475 -0.3653469,-0.138861 -0.6784724,-0.252503 -0.6958344,-0.252538 -0.017362,-3.5e-5 -0.031567,0.225031 -0.031567,0.500146 0,0.533686 -0.018575,0.521276 1.1995562,0.801385 0.489053,0.112457 1.647207,0.0844 2.146574,-0.05201 l 0,0 z"
       id="path6919"
       inkscape:connector-curvature="0"
       transform="translate(199.77557,438.2235)" />
    <text
       xml:space="preserve"
       style="font-size:40px;font-style:normal;font-weight:normal;line-height:125%;letter-spacing:0px;word-spacing:0px;fill:#000000;fill-opacity:1;stroke:none;font-family:Sans"
       x="382.65698"
       y="455.85452"
       id="text5810-8"
       sodipodi:linespacing="125%"><tspan
         sodipodi:role="line"
         id="tspan5812-6"
         x="382.65698"
         y="455.85452" /></text>
  </g>
</svg>
