<?xml version="1.0" encoding="UTF-8" standalone="no"?>
<!-- Created with Inkscape (http://www.inkscape.org/) -->

<svg
   xmlns:dc="http://purl.org/dc/elements/1.1/"
   xmlns:cc="http://creativecommons.org/ns#"
   xmlns:rdf="http://www.w3.org/1999/02/22-rdf-syntax-ns#"
   xmlns:svg="http://www.w3.org/2000/svg"
   xmlns="http://www.w3.org/2000/svg"
   xmlns:sodipodi="http://sodipodi.sourceforge.net/DTD/sodipodi-0.dtd"
   xmlns:inkscape="http://www.inkscape.org/namespaces/inkscape"
   width="141.86081"
   height="126.3488"
   id="svg2"
   version="1.1"
   inkscape:version="0.48.3.1 r9886"
   sodipodi:docname="fluj2.svg">
  <sodipodi:namedview
     id="base"
     pagecolor="#ffffff"
     bordercolor="#666666"
     borderopacity="1.0"
     inkscape:pageopacity="0.0"
     inkscape:pageshadow="2"
     inkscape:zoom="1.4142136"
     inkscape:cx="-8.3391373"
     inkscape:cy="93.074024"
     inkscape:document-units="px"
     inkscape:current-layer="layer1"
     showgrid="false"
     fit-margin-top="0"
     fit-margin-left="0"
     fit-margin-right="0"
     fit-margin-bottom="0"
     inkscape:window-width="1022"
     inkscape:window-height="579"
     inkscape:window-x="0"
     inkscape:window-y="19"
     inkscape:window-maximized="0" />
  <defs
     id="defs4">
    <marker
       inkscape:stockid="Arrow2Lend"
       orient="auto"
       refY="0"
       refX="0"
       id="Arrow2Lend"
       style="overflow:visible">
      <path
         id="path3879"
         style="fill-rule:evenodd;stroke-width:0.625;stroke-linejoin:round"
         d="M 8.7185878,4.0337352 -2.2072895,0.01601326 8.7185884,-4.0017078 c -1.7454984,2.3720609 -1.7354408,5.6174519 -6e-7,8.035443 z"
         transform="matrix(-1.1,0,0,-1.1,-1.1,0)"
         inkscape:connector-curvature="0" />
    </marker>
    <marker
       inkscape:stockid="Arrow1Mstart"
       orient="auto"
       refY="0"
       refX="0"
       id="Arrow1Mstart"
       style="overflow:visible">
      <path
         id="path3864"
         d="M 0,0 5,-5 -12.5,0 5,5 0,0 z"
         style="fill-rule:evenodd;stroke:#000000;stroke-width:1pt"
         transform="matrix(0.4,0,0,0.4,4,0)"
         inkscape:connector-curvature="0" />
    </marker>
    <marker
       inkscape:stockid="Arrow2Sstart"
       orient="auto"
       refY="0"
       refX="0"
       id="Arrow2Sstart"
       style="overflow:visible">
      <path
         id="path3888"
         style="fill-rule:evenodd;stroke-width:0.625;stroke-linejoin:round"
         d="M 8.7185878,4.0337352 -2.2072895,0.01601326 8.7185884,-4.0017078 c -1.7454984,2.3720609 -1.7354408,5.6174519 -6e-7,8.035443 z"
         transform="matrix(0.3,0,0,0.3,-0.69,0)"
         inkscape:connector-curvature="0" />
    </marker>
    <marker
       inkscape:stockid="Arrow1Mend"
       orient="auto"
       refY="0"
       refX="0"
       id="Arrow1Mend"
       style="overflow:visible">
      <path
         id="path3867"
         d="M 0,0 5,-5 -12.5,0 5,5 0,0 z"
         style="fill-rule:evenodd;stroke:#000000;stroke-width:1pt"
         transform="matrix(-0.4,0,0,-0.4,-4,0)"
         inkscape:connector-curvature="0" />
    </marker>
    <marker
       inkscape:stockid="Arrow1Lstart"
       orient="auto"
       refY="0"
       refX="0"
       id="Arrow1Lstart"
       style="overflow:visible">
      <path
         id="path3858"
         d="M 0,0 5,-5 -12.5,0 5,5 0,0 z"
         style="fill-rule:evenodd;stroke:#000000;stroke-width:1pt"
         transform="matrix(0.8,0,0,0.8,10,0)"
         inkscape:connector-curvature="0" />
    </marker>
    <marker
       inkscape:stockid="Arrow1Lend"
       orient="auto"
       refY="0"
       refX="0"
       id="Arrow1Lend"
       style="overflow:visible">
      <path
         id="path3861"
         d="M 0,0 5,-5 -12.5,0 5,5 0,0 z"
         style="fill-rule:evenodd;stroke:#000000;stroke-width:1pt"
         transform="matrix(-0.8,0,0,-0.8,-10,0)"
         inkscape:connector-curvature="0" />
    </marker>
    <marker
       inkscape:stockid="Arrow2Lend"
       orient="auto"
       refY="0"
       refX="0"
       id="Arrow2Lend-6"
       style="overflow:visible">
      <path
         id="path3879-8"
         style="fill-rule:evenodd;stroke-width:0.625;stroke-linejoin:round"
         d="M 8.7185878,4.0337352 -2.2072895,0.01601326 8.7185884,-4.0017078 c -1.7454984,2.3720609 -1.7354408,5.6174519 -6e-7,8.035443 z"
         transform="matrix(-1.1,0,0,-1.1,-1.1,0)"
         inkscape:connector-curvature="0" />
    </marker>
    <marker
       inkscape:stockid="Arrow2Lend"
       orient="auto"
       refY="0"
       refX="0"
       id="marker3235"
       style="overflow:visible">
      <path
         id="path3237"
         style="fill-rule:evenodd;stroke-width:0.625;stroke-linejoin:round"
         d="M 8.7185878,4.0337352 -2.2072895,0.01601326 8.7185884,-4.0017078 c -1.7454984,2.3720609 -1.7354408,5.6174519 -6e-7,8.035443 z"
         transform="matrix(-1.1,0,0,-1.1,-1.1,0)"
         inkscape:connector-curvature="0" />
    </marker>
    <marker
       inkscape:stockid="Arrow2Lend"
       orient="auto"
       refY="0"
       refX="0"
       id="marker3239"
       style="overflow:visible">
      <path
         id="path3241"
         style="fill-rule:evenodd;stroke-width:0.625;stroke-linejoin:round"
         d="M 8.7185878,4.0337352 -2.2072895,0.01601326 8.7185884,-4.0017078 c -1.7454984,2.3720609 -1.7354408,5.6174519 -6e-7,8.035443 z"
         transform="matrix(-1.1,0,0,-1.1,-1.1,0)"
         inkscape:connector-curvature="0" />
    </marker>
    <marker
       inkscape:stockid="Arrow2Lend"
       orient="auto"
       refY="0"
       refX="0"
       id="marker3243"
       style="overflow:visible">
      <path
         id="path3245"
         style="fill-rule:evenodd;stroke-width:0.625;stroke-linejoin:round"
         d="M 8.7185878,4.0337352 -2.2072895,0.01601326 8.7185884,-4.0017078 c -1.7454984,2.3720609 -1.7354408,5.6174519 -6e-7,8.035443 z"
         transform="matrix(-1.1,0,0,-1.1,-1.1,0)"
         inkscape:connector-curvature="0" />
    </marker>
    <marker
       inkscape:stockid="Arrow2Lend"
       orient="auto"
       refY="0"
       refX="0"
       id="marker3247"
       style="overflow:visible">
      <path
         id="path3249"
         style="fill-rule:evenodd;stroke-width:0.625;stroke-linejoin:round"
         d="M 8.7185878,4.0337352 -2.2072895,0.01601326 8.7185884,-4.0017078 c -1.7454984,2.3720609 -1.7354408,5.6174519 -6e-7,8.035443 z"
         transform="matrix(-1.1,0,0,-1.1,-1.1,0)"
         inkscape:connector-curvature="0" />
    </marker>
    <marker
       inkscape:stockid="marker3247I"
       orient="auto"
       refY="0"
       refX="0"
       id="marker3247I"
       style="overflow:visible">
      <path
         id="path5069"
         style="fill:#ff0000;fill-rule:evenodd;stroke:#ff0000;stroke-width:0.625;stroke-linejoin:round"
         d="M 8.7185878,4.0337352 -2.2072895,0.01601326 8.7185884,-4.0017078 c -1.7454984,2.3720609 -1.7354408,5.6174519 -6e-7,8.035443 z"
         transform="matrix(-1.1,0,0,-1.1,-1.1,0)"
         inkscape:connector-curvature="0" />
    </marker>
    <marker
       inkscape:stockid="marker3247v"
       orient="auto"
       refY="0"
       refX="0"
       id="marker3247v"
       style="overflow:visible">
      <path
         id="path5465"
         style="fill:#ff0000;fill-rule:evenodd;stroke:#ff0000;stroke-width:0.625;stroke-linejoin:round"
         d="M 8.7185878,4.0337352 -2.2072895,0.01601326 8.7185884,-4.0017078 c -1.7454984,2.3720609 -1.7354408,5.6174519 -6e-7,8.035443 z"
         transform="matrix(-1.1,0,0,-1.1,-1.1,0)"
         inkscape:connector-curvature="0" />
    </marker>
    <marker
       inkscape:stockid="marker3247n"
       orient="auto"
       refY="0"
       refX="0"
       id="marker3247n"
       style="overflow:visible">
      <path
         id="path6276"
         style="fill:#ff0000;fill-rule:evenodd;stroke:#ff0000;stroke-width:0.625;stroke-linejoin:round"
         d="M 8.7185878,4.0337352 -2.2072895,0.01601326 8.7185884,-4.0017078 c -1.7454984,2.3720609 -1.7354408,5.6174519 -6e-7,8.035443 z"
         transform="matrix(-1.1,0,0,-1.1,-1.1,0)"
         inkscape:connector-curvature="0" />
    </marker>
    <marker
       inkscape:stockid="marker32477"
       orient="auto"
       refY="0"
       refX="0"
       id="marker32477"
       style="overflow:visible">
      <path
         id="path6679"
         style="fill:#ff0000;fill-rule:evenodd;stroke:#ff0000;stroke-width:0.625;stroke-linejoin:round"
         d="M 8.7185878,4.0337352 -2.2072895,0.01601326 8.7185884,-4.0017078 c -1.7454984,2.3720609 -1.7354408,5.6174519 -6e-7,8.035443 z"
         transform="matrix(-1.1,0,0,-1.1,-1.1,0)"
         inkscape:connector-curvature="0" />
    </marker>
  </defs>
  <metadata
     id="metadata7">
    <rdf:RDF>
      <cc:Work
         rdf:about="">
        <dc:format>image/svg+xml</dc:format>
        <dc:type
           rdf:resource="http://purl.org/dc/dcmitype/StillImage" />
        <dc:title></dc:title>
      </cc:Work>
    </rdf:RDF>
  </metadata>
  <g
     inkscape:label="Layer 1"
     inkscape:groupmode="layer"
     id="layer1"
     transform="translate(-374.21826,-439.57299)">
    <text
       xml:space="preserve"
       style="font-size:40px;font-style:normal;font-weight:normal;line-height:125%;letter-spacing:0px;word-spacing:0px;fill:#000000;fill-opacity:1;stroke:none;font-family:Sans"
       x="208.21429"
       y="454.50504"
       id="text5810"
       sodipodi:linespacing="125%"><tspan
         sodipodi:role="line"
         id="tspan5812"
         x="208.21429"
         y="454.50504" /></text>
    <path
       sodipodi:type="arc"
       style="fill:none;stroke:#000000;stroke-width:1.07477331;stroke-miterlimit:4;stroke-opacity:1;stroke-dasharray:none"
       id="path2985-4"
       sodipodi:cx="233.34525"
       sodipodi:cy="484.65646"
       sodipodi:rx="11.111678"
       sodipodi:ry="10.101525"
       d="m 244.45692,484.65646 c 0,5.57892 -4.97486,10.10153 -11.11167,10.10153 -6.13682,0 -11.11168,-4.52261 -11.11168,-10.10153 0,-5.57891 4.97486,-10.10152 11.11168,-10.10152 6.13681,0 11.11167,4.52261 11.11167,10.10152 z"
       transform="matrix(0.85227273,0,0,0.85227273,185.27265,85.454201)" />
    <text
       xml:space="preserve"
       style="font-size:40px;font-style:normal;font-weight:normal;line-height:125%;letter-spacing:0px;word-spacing:0px;fill:#000000;fill-opacity:1;stroke:none;font-family:Sans"
       x="381.93286"
       y="501.79166"
       id="text3755-2"
       sodipodi:linespacing="125%"><tspan
         sodipodi:role="line"
         id="tspan3757-47"
         x="381.93286"
         y="501.79166"
         style="font-size:12px">s</tspan></text>
    <path
       sodipodi:type="arc"
       style="fill:none;stroke:#000000;stroke-width:1.07477331;stroke-miterlimit:4;stroke-opacity:1;stroke-dasharray:none"
       id="path2985-6-5"
       sodipodi:cx="233.34525"
       sodipodi:cy="484.65646"
       sodipodi:rx="11.111678"
       sodipodi:ry="10.101525"
       d="m 244.45692,484.65646 c 0,5.57892 -4.97486,10.10153 -11.11167,10.10153 -6.13682,0 -11.11168,-4.52261 -11.11168,-10.10153 0,-5.57891 4.97486,-10.10152 11.11168,-10.10152 6.13681,0 11.11167,4.52261 11.11167,10.10152 z"
       transform="matrix(0.85227273,0,0,0.85227273,307.2771,85.453931)" />
    <text
       xml:space="preserve"
       style="font-size:40px;font-style:normal;font-weight:normal;line-height:125%;letter-spacing:0px;word-spacing:0px;fill:#000000;fill-opacity:1;stroke:none;font-family:Sans"
       x="504.73798"
       y="501.79144"
       id="text3755-4-9"
       sodipodi:linespacing="125%"><tspan
         sodipodi:role="line"
         id="tspan3757-4-5"
         x="504.73798"
         y="501.79144"
         style="font-size:12px">t</tspan></text>
    <path
       sodipodi:type="arc"
       style="fill:none;stroke:#000000;stroke-width:1.07477331;stroke-miterlimit:4;stroke-opacity:1;stroke-dasharray:none"
       id="path2985-3-4"
       sodipodi:cx="233.34525"
       sodipodi:cy="484.65646"
       sodipodi:rx="11.111678"
       sodipodi:ry="10.101525"
       d="m 244.45692,484.65646 c 0,5.57892 -4.97486,10.10153 -11.11167,10.10153 -6.13682,0 -11.11168,-4.52261 -11.11168,-10.10153 0,-5.57891 4.97486,-10.10152 11.11168,-10.10152 6.13681,0 11.11167,4.52261 11.11167,10.10152 z"
       transform="matrix(0.85227273,0,0,0.85227273,246.0689,35.580761)" />
    <text
       xml:space="preserve"
       style="font-size:40px;font-style:normal;font-weight:normal;line-height:125%;letter-spacing:0px;word-spacing:0px;fill:#000000;fill-opacity:1;stroke:none;font-family:Sans"
       x="441.82928"
       y="451.91821"
       id="text3755-8-04"
       sodipodi:linespacing="125%"><tspan
         sodipodi:role="line"
         id="tspan3757-9-5"
         x="441.82928"
         y="451.91821"
         style="font-size:12px">1</tspan></text>
    <path
       sodipodi:type="arc"
       style="fill:none;stroke:#000000;stroke-width:1.07477331;stroke-miterlimit:4;stroke-opacity:1;stroke-dasharray:none"
       id="path2985-3-6-5"
       sodipodi:cx="233.34525"
       sodipodi:cy="484.65646"
       sodipodi:rx="11.111678"
       sodipodi:ry="10.101525"
       d="m 244.45692,484.65646 c 0,5.57892 -4.97486,10.10153 -11.11167,10.10153 -6.13682,0 -11.11168,-4.52261 -11.11168,-10.10153 0,-5.57891 4.97486,-10.10152 11.11168,-10.10152 6.13681,0 11.11167,4.52261 11.11167,10.10152 z"
       transform="matrix(0.85227273,0,0,0.85227273,246.06865,143.79505)" />
    <text
       xml:space="preserve"
       style="font-size:40px;font-style:normal;font-weight:normal;line-height:125%;letter-spacing:0px;word-spacing:0px;fill:#000000;fill-opacity:1;stroke:none;font-family:Sans"
       x="441.82928"
       y="560.13251"
       id="text3755-8-0-1"
       sodipodi:linespacing="125%"><tspan
         sodipodi:role="line"
         id="tspan3757-9-7-3"
         x="441.82928"
         y="560.13251"
         style="font-size:12px">2</tspan></text>
    <path
       style="fill:none;stroke:#000000;stroke-width:0.65819341;stroke-linecap:butt;stroke-linejoin:miter;stroke-miterlimit:4;stroke-opacity:1;stroke-dasharray:none;marker-end:url(#Arrow2Lend)"
       d="m 391.64316,492.58263 c 44.98309,-38.04889 45.16088,-38.2108 45.16088,-38.2108"
       id="path3852-1"
       inkscape:connector-curvature="0"
       sodipodi:nodetypes="cc" />
    <text
       xml:space="preserve"
       style="font-size:40px;font-style:normal;font-weight:normal;line-height:125%;letter-spacing:0px;word-spacing:0px;fill:#000000;fill-opacity:1;stroke:none;font-family:Sans"
       x="382.65698"
       y="455.85452"
       id="text5810-8"
       sodipodi:linespacing="125%"><tspan
         sodipodi:role="line"
         id="tspan5812-6"
         x="382.65698"
         y="455.85452" /></text>
    <path
       style="fill:none;stroke:#000000;stroke-width:0.66109258;stroke-linecap:butt;stroke-linejoin:miter;stroke-miterlimit:4;stroke-opacity:1;stroke-dasharray:none;marker-end:url(#Arrow2Lend)"
       d="m 452.53536,551.47742 c 45.44382,-46.57466 45.85103,-46.83056 45.85103,-46.83056 l -3.74627,3.49737 3.9906,-3.75327"
       id="path6092-4"
       inkscape:connector-curvature="0"
       sodipodi:nodetypes="cccc" />
    <path
       style="fill:#00ff00;fill-opacity:0.32195123;stroke:#000000;stroke-width:0;stroke-linejoin:miter;stroke-miterlimit:100;stroke-opacity:1;stroke-dasharray:none"
       d="m 504.7406,506.5261 c -1.8914,-0.30273 -3.34861,-0.96609 -4.84481,-2.20548 -0.7178,-0.59459 -1.5251,-1.65418 -1.97495,-2.59213 -0.81355,-1.69626 -0.9506,-3.71909 -0.373,-5.50521 0.18394,-0.5688 0.62244,-1.45644 0.99093,-2.00587 0.36179,-0.53945 1.62867,-1.78463 2.21396,-2.17605 3.69336,-2.46993 8.72518,-2.09742 11.86717,0.87853 2.44123,2.31223 3.1571,5.61637 1.85947,8.58256 -0.39545,0.90394 -0.91568,1.64485 -1.71376,2.44071 -1.46315,1.45908 -3.13063,2.27601 -5.27386,2.58375 -0.78153,0.11222 -2.04726,0.11185 -2.75115,-8.2e-4 l 0,10e-6 z m 4.45099,-5.16819 0,-0.46527 -0.84647,-0.0287 c -1.40629,-0.0477 -1.36324,0.0386 -1.36324,-2.73209 l 0,-2.0539 1.10485,0 1.10486,0 0,-0.44194 0,-0.44194 -1.10486,0 -1.10485,0 0,-0.91545 0,-0.91545 -0.56821,0 -0.56821,0 0,0.91545 0,0.91545 -0.41038,0 -0.41037,0 0,0.44194 0,0.44194 0.40673,0 0.40673,0 0.0194,2.25706 0.0194,2.25706 0.16551,0.35296 c 0.31955,0.68141 0.78534,0.85933 2.28095,0.87125 l 0.8681,0.007 0,-0.46527 z"
       id="path6917-8"
       inkscape:connector-curvature="0" />
    <path
       style="fill:#00ffff;fill-opacity:0.21164018;stroke:#000000;stroke-width:0;stroke-linejoin:miter;stroke-miterlimit:100;stroke-opacity:1;stroke-dasharray:none"
       d="m 382.71451,506.59576 c -3.52103,-0.5512 -6.39876,-2.94972 -7.34025,-6.11791 -0.30231,-1.01729 -0.30231,-2.89705 0,-3.91434 1.44601,-4.86596 6.9674,-7.44014 12.07878,-5.63136 1.36284,0.48227 2.28344,1.0628 3.32844,2.09892 1.57866,1.56527 2.22036,2.98135 2.31665,5.11238 0.0914,2.02295 -0.34316,3.43517 -1.54633,5.02509 -1.89677,2.50647 -5.58414,3.93648 -8.83729,3.42722 l 0,0 z m 3.27944,-4.80519 c 1.11538,-0.30467 1.71588,-1.17142 1.52319,-2.19853 -0.15465,-0.8244 -0.56296,-1.08172 -2.69625,-1.69916 -0.70407,-0.20378 -0.95278,-0.33725 -1.05774,-0.56762 -0.19866,-0.436 -0.0314,-0.91755 0.39545,-1.13826 0.46933,-0.2427 1.79129,-0.24198 2.46669,10e-4 0.27779,0.10008 0.51928,0.18281 0.53665,0.18386 0.0174,10e-4 0.0316,-0.19838 0.0316,-0.44317 0,-0.54466 -0.2754,-0.68071 -1.57837,-0.77973 -1.67292,-0.12714 -2.80435,0.49774 -2.93069,1.61859 -0.12937,1.14778 0.43568,1.7179 2.11356,2.13249 1.24668,0.30804 1.58442,0.51316 1.70852,1.03764 0.0653,0.2758 0.006,0.41985 -0.30057,0.72605 -0.35306,0.35306 -0.44956,0.38199 -1.27423,0.38199 -0.58651,0 -1.11986,-0.0865 -1.55651,-0.25248 -0.36535,-0.13886 -0.67847,-0.2525 -0.69583,-0.25254 -0.0174,-3e-5 -0.0316,0.22503 -0.0316,0.50015 0,0.53369 -0.0186,0.52128 1.19956,0.80138 0.48905,0.11246 1.6472,0.0844 2.14657,-0.052 l 0,0 z"
       id="path6919-5"
       inkscape:connector-curvature="0" />
    <path
       style="fill:none;stroke:#ff0000;stroke-width:0;stroke-linecap:butt;stroke-linejoin:miter;stroke-miterlimit:4;stroke-opacity:1;stroke-dasharray:none"
       d="m 450.46958,549.5595 c 10.99483,-49.87079 0.0864,-93.33269 0,-93.67705"
       id="path5624"
       inkscape:connector-curvature="0"
       sodipodi:nodetypes="cc" />
    <path
       style="fill:none;stroke:#ff0000;stroke-width:0.64633876;stroke-linecap:butt;stroke-linejoin:miter;stroke-miterlimit:4;stroke-opacity:1;stroke-dasharray:none;marker-end:url(#marker3247n)"
       d="m 448.77817,456.73852 c 8.85071,55.46559 -0.50065,90.34586 -0.50507,90.36327"
       id="path6038"
       inkscape:connector-curvature="0"
       sodipodi:nodetypes="cc" />
  </g>
</svg>
