<?xml version="1.0" encoding="UTF-8" standalone="no"?>
<!-- Created with Inkscape (http://www.inkscape.org/) -->

<svg
   xmlns:dc="http://purl.org/dc/elements/1.1/"
   xmlns:cc="http://creativecommons.org/ns#"
   xmlns:rdf="http://www.w3.org/1999/02/22-rdf-syntax-ns#"
   xmlns:svg="http://www.w3.org/2000/svg"
   xmlns="http://www.w3.org/2000/svg"
   xmlns:xlink="http://www.w3.org/1999/xlink"
   xmlns:sodipodi="http://sodipodi.sourceforge.net/DTD/sodipodi-0.dtd"
   xmlns:inkscape="http://www.inkscape.org/namespaces/inkscape"
   width="334.08356"
   height="327.86865"
   viewBox="0 0 94.285803 92.531819"
   version="1.1"
   id="svg8"
   inkscape:version="0.48.3.1 r9886"
   sodipodi:docname="np.pdf">
  <defs
     id="defs2">
    <linearGradient
       inkscape:collect="always"
       id="linearGradient4987">
      <stop
         style="stop-color:#ffffff;stop-opacity:1;"
         offset="0"
         id="stop4983" />
      <stop
         style="stop-color:#ffffff;stop-opacity:0;"
         offset="1"
         id="stop4985" />
    </linearGradient>
    <linearGradient
       inkscape:collect="always"
       id="linearGradient4967">
      <stop
         style="stop-color:#ffffff;stop-opacity:1;"
         offset="0"
         id="stop4963" />
      <stop
         style="stop-color:#ffffff;stop-opacity:0;"
         offset="1"
         id="stop4965" />
    </linearGradient>
    <inkscape:path-effect
       effect="bspline"
       id="path-effect4911"
       is_visible="true"
       weight="33.333333"
       steps="2"
       helper_size="0"
       apply_no_weight="true"
       apply_with_weight="true"
       only_selected="false" />
    <marker
       inkscape:stockid="Arrow1Lend"
       orient="auto"
       refY="0"
       refX="0"
       id="Arrow1Lend"
       style="overflow:visible"
       inkscape:isstock="true">
      <path
         id="path4592"
         d="M 0,0 5,-5 -12.5,0 5,5 0,0 z"
         style="fill:#e2ffff;fill-opacity:1;fill-rule:evenodd;stroke:none"
         transform="matrix(-0.8,0,0,-0.8,-10,0)"
         inkscape:connector-curvature="0" />
    </marker>
    <inkscape:path-effect
       effect="bspline"
       id="path-effect4547"
       is_visible="true"
       weight="33.333333"
       steps="2"
       helper_size="0"
       apply_no_weight="true"
       apply_with_weight="true"
       only_selected="false" />
    <linearGradient
       inkscape:collect="always"
       xlink:href="#linearGradient4967"
       id="linearGradient4969"
       x1="107.44234"
       y1="93.117905"
       x2="107.30871"
       y2="106.70409"
       gradientUnits="userSpaceOnUse"
       gradientTransform="matrix(1,0,0,1.5,0.13363476,-44.465332)" />
    <linearGradient
       inkscape:collect="always"
       xlink:href="#linearGradient4987"
       id="linearGradient4989"
       x1="104.76965"
       y1="96.214653"
       x2="104.76965"
       y2="103.36323"
       gradientUnits="userSpaceOnUse"
       gradientTransform="matrix(0.99945346,0,0,1.3200059,0.05743616,-26.682453)" />
  </defs>
  <sodipodi:namedview
     id="base"
     pagecolor="#ffffff"
     bordercolor="#666666"
     borderopacity="1.0"
     inkscape:pageopacity="0.0"
     inkscape:pageshadow="2"
     inkscape:zoom="1.4"
     inkscape:cx="154.66983"
     inkscape:cy="105.16798"
     inkscape:document-units="mm"
     inkscape:current-layer="layer1"
     showgrid="false"
     inkscape:window-width="1022"
     inkscape:window-height="579"
     inkscape:window-x="0"
     inkscape:window-y="19"
     inkscape:window-maximized="0"
     units="mm"
     fit-margin-top="0"
     fit-margin-left="0"
     fit-margin-right="0"
     fit-margin-bottom="0" />
  <metadata
     id="metadata5">
    <rdf:RDF>
      <cc:Work
         rdf:about="">
        <dc:format>image/svg+xml</dc:format>
        <dc:type
           rdf:resource="http://purl.org/dc/dcmitype/StillImage" />
        <dc:title></dc:title>
      </cc:Work>
    </rdf:RDF>
  </metadata>
  <g
     inkscape:label="Layer 1"
     inkscape:groupmode="layer"
     id="layer1"
     transform="translate(-57.960843,-89.763653)">
    <ellipse
       id="path4487"
       cx="104.51137"
       cy="152.13609"
       rx="30.47827"
       ry="30.009377"
       style="fill:none;stroke:#000000;stroke-width:0.79999999;stroke-miterlimit:4;stroke-opacity:1;stroke-dasharray:none"
       sodipodi:cx="104.51137"
       sodipodi:cy="152.13609"
       sodipodi:rx="30.47827"
       sodipodi:ry="30.009377"
       d="m 134.98964,152.13609 c 0,16.57372 -13.64559,30.00938 -30.47827,30.00938 -16.832686,0 -30.478272,-13.43566 -30.478272,-30.00938 0,-16.57372 13.645586,-30.00937 30.478272,-30.00937 16.83268,0 30.47827,13.43565 30.47827,30.00937 z" />
    <ellipse
       id="path4487-8"
       cx="104.63602"
       cy="165.38948"
       rx="14.387653"
       ry="14.166306"
       style="fill:none;stroke:#000000;stroke-width:0.1416188;stroke-miterlimit:4;stroke-opacity:1;stroke-dasharray:1.13295039, 1.13295039;stroke-dashoffset:0"
       sodipodi:cx="104.63602"
       sodipodi:cy="165.38948"
       sodipodi:rx="14.387653"
       sodipodi:ry="14.166306"
       d="m 119.02367,165.38948 c 0,7.82384 -6.44157,14.16631 -14.38765,14.16631 -7.946085,0 -14.387657,-6.34247 -14.387657,-14.16631 0,-7.82383 6.441572,-14.1663 14.387657,-14.1663 7.94608,0 14.38765,6.34247 14.38765,14.1663 z" />
    <path
       style="fill:#000000;fill-opacity:0.43809521;stroke:#000000;stroke-width:0.21903062px;stroke-linecap:butt;stroke-linejoin:miter;stroke-opacity:1"
       d="m 64.661199,93.060309 c 6.344494,17.849161 12.689061,35.698531 22.573224,44.623311 9.884163,8.92477 23.307427,8.92477 33.992377,0.1328 10.68495,-8.79198 18.63128,-26.37525 22.60444,-35.16686 3.97315,-8.791611 3.97315,-8.791611 3.97315,-8.791611"
       id="path4545"
       inkscape:connector-curvature="0"
       inkscape:original-d="m 64.661199,93.060309 c 6.344812,17.849051 12.68938,35.698421 19.03369,53.548081 13.423697,-2.6e-4 26.846961,-2.6e-4 40.270221,0 7.94676,-17.58389 15.89309,-35.16717 23.83928,-52.750441 2.6e-4,-2.65e-4 0,0 0,0"
       sodipodi:nodetypes="ccccc" />
    <path
       style="fill:none;stroke:#000000;stroke-width:0.28724408;stroke-miterlimit:4;stroke-opacity:1;stroke-dasharray:0, 3.15968494;stroke-dashoffset:0"
       d="m 389.99929,677.97629 c -6.01521,-0.56601 -12.54523,-2.43746 -18.30902,-5.24721 -32.73006,-15.95532 -40.3931,-58.18855 -15.27856,-84.2046 16.74194,-17.3429 42.99708,-21.56039 64.38368,-10.34226 15.26606,8.00765 25.70778,22.71875 28.14406,39.65153 0.46856,3.25661 0.54199,10.23381 0.14177,13.47148 -2.51195,20.32127 -16.62988,37.52957 -36.12581,44.03362 -7.4747,2.49364 -15.13332,3.37355 -22.95612,2.63744 z"
       id="path4569"
       inkscape:connector-curvature="0"
       transform="scale(0.26458333,0.26458333)" />
    <path
       style="fill:#000000;fill-opacity:0;stroke:none"
       d="m 379.30919,674.94808 c -12.37167,-4.23336 -21.5172,-11.0411 -28.12405,-20.93493 -10.45861,-15.66189 -11.79758,-35.04745 -3.55828,-51.51682 19.82461,-39.62707 75.86494,-39.62707 95.68956,0 14.60461,29.19292 -2.06447,64.82075 -34.2497,73.20394 -8.84758,2.3045 -21.77992,1.9776 -29.75753,-0.75219 z"
       id="path4587"
       inkscape:connector-curvature="0"
       transform="scale(0.26458333,0.26458333)" />
    <path
       style="fill:#000000;fill-opacity:0.18090455;stroke:none"
       d="m 380.39198,544.62225 c -21.5968,-3.51393 -40.17223,-13.93425 -56.06209,-30.48921 -4.92775,-5.13402 -13.91048,-14.57539 -13.91048,-15.38599 0,-0.70501 9.41532,-8.74479 14.22033,-12.45835 16.19538,-12.51661 37.105,-21.7035 57.83934,-23.99317 8.04425,-0.88831 24.43341,0.39743 31.92291,1.74276 23.61154,4.24129 44.17552,13.65161 60.84165,29.68211 3.72441,3.58237 5.34711,5.2321 4.92237,6.02574 -0.93243,1.74226 -16.58426,16.44693 -21.42059,20.50264 -13.89058,11.6485 -30.72871,19.96074 -47.47601,23.51621 -7.67121,1.62861 -23.69735,2.02551 -30.87743,0.85726 z"
       id="path4905"
       inkscape:connector-curvature="0"
       transform="scale(0.26458333,0.26458333)"
       sodipodi:nodetypes="cssssssccsc" />
    <path
       style="fill:#000000;fill-opacity:0.06532665;stroke:none"
       d="m 386.47176,687.35688 c -29.47711,-2.70477 -54.59882,-14.49802 -74.24621,-34.85446 -10.72965,-11.11687 -18.14047,-22.6065 -23.9126,-37.07374 -7.94035,-19.90164 -9.70202,-43.40675 -4.88227,-65.14148 3.55286,-16.02165 12.25733,-33.60342 23.0323,-46.52194 1.84818,-2.21585 3.52592,-3.96229 3.7283,-3.88098 0.20239,0.0813 2.19421,2.42067 4.42627,5.19859 17.40027,21.65555 37.176,34.55754 60.45489,39.44171 8.42846,1.76839 21.79777,2.21182 30.08714,0.99793 23.63942,-3.46172 44.10759,-14.18442 63.15994,-33.08772 3.23549,-3.21018 7.22456,-7.37838 8.8646,-9.26267 l 2.98189,-3.42598 3.19454,3.79839 c 10.77146,12.80758 19.68937,30.82574 23.27704,47.03006 4.1963,18.95334 3.27538,39.98984 -2.54643,58.16757 -13.14201,41.03395 -48.88965,71.08571 -92.36558,77.6484 -5.19299,0.78389 -20.75323,1.37928 -25.25382,0.96632 z m 17.33175,-9.23691 c 0.78201,-0.30445 2.373,-0.56066 3.53553,-0.56934 1.19519,-0.009 3.2111,-0.55563 4.63907,-1.25808 1.38896,-0.68325 3.12491,-1.24435 3.85767,-1.24689 0.73276,-0.003 2.43739,-0.76271 3.78807,-1.68928 1.35068,-0.92656 3.08154,-1.84021 3.84634,-2.03033 0.7648,-0.19011 2.45328,-1.36394 3.75216,-2.60848 1.29889,-1.24456 2.64444,-2.26283 2.99012,-2.26283 0.8108,0 3.86789,-2.56231 3.49818,-2.93201 -0.33077,-0.33078 2.24689,-3.1289 2.88239,-3.1289 0.69363,0 2.87823,-2.69911 2.89577,-3.57777 0.009,-0.43991 0.93218,-1.79229 2.05202,-3.00528 1.11983,-1.213 2.16108,-2.78499 2.3139,-3.49331 0.44177,-2.0477 1.2942,-4.06578 1.71739,-4.06578 0.56848,0 2.08525,-4.02158 1.73221,-4.59281 -0.16507,-0.26709 0.18508,-1.48792 0.77811,-2.71296 2.31855,-4.78949 2.33389,-23.5792 0.0228,-27.89125 -0.56337,-1.05112 -1.0243,-2.52883 -1.0243,-3.2838 0,-1.63296 -0.93089,-3.84978 -2.11994,-5.04844 -0.47148,-0.47529 -1.10949,-1.80093 -1.41779,-2.94588 -0.30829,-1.14494 -1.25972,-2.80474 -2.11427,-3.68844 -0.85455,-0.8837 -1.85116,-2.30653 -2.21469,-3.16182 -0.36353,-0.85531 -1.92589,-2.63576 -3.47192,-3.95658 -1.54602,-1.32081 -2.69785,-2.58447 -2.55962,-2.80812 0.26884,-0.43501 -2.88727,-3.04443 -3.68226,-3.04443 -0.26141,0 -1.35618,-0.81407 -2.43281,-1.80905 -1.90715,-1.7625 -4.73544,-3.54781 -4.73544,-2.98918 0,0.33669 -3.17807,-1.25235 -3.53554,-1.76776 -0.48167,-0.69451 -3.56751,-2.06016 -4.02136,-1.77967 -0.25088,0.15506 -1.76428,-0.31642 -3.3631,-1.04774 -1.63756,-0.74904 -3.76893,-1.31777 -4.88093,-1.30242 -1.08569,0.015 -2.57714,-0.20336 -3.31432,-0.48521 -1.77169,-0.67737 -11.61439,-0.94436 -13.16193,-0.35702 -0.66825,0.25361 -2.71381,0.55984 -4.54569,0.6805 -1.96422,0.12937 -4.15158,0.64029 -5.33152,1.24532 -1.10046,0.56426 -2.44803,1.02593 -2.9946,1.02593 -1.36227,0 -4.34849,1.11881 -4.34849,1.6292 0,0.45357 -2.30139,1.53231 -3.56741,1.67215 -1.09739,0.12122 -3.57879,1.77752 -4.65325,3.10597 -0.49338,0.61001 -1.40252,1.26257 -2.02031,1.45013 -1.46497,0.44476 -4.55667,2.76709 -4.18225,3.1415 0.39618,0.39618 -1.76234,2.63811 -2.53998,2.63811 -0.73988,0 -3.23748,2.84804 -3.24524,3.70056 -0.003,0.32592 -1.02574,1.69903 -2.27284,3.05135 -1.2471,1.35231 -2.26745,2.6592 -2.26745,2.90418 0,0.24499 0.005,0.56146 0.0103,0.70327 0.0169,0.42652 -1.63883,3.51111 -2.03054,3.78278 -0.68376,0.47421 -2.0203,3.48318 -2.0203,4.54831 0,0.58462 -0.46212,2.07735 -1.02692,3.31717 -0.56481,1.23982 -1.12027,3.55702 -1.23437,5.14932 -0.11409,1.59231 -0.4149,3.57695 -0.66844,4.41033 -0.58826,1.93348 -0.29601,11.57081 0.38973,12.85213 0.28583,0.53408 0.51969,2.06896 0.51969,3.41085 0,1.49914 0.40146,3.18883 1.04126,4.38257 0.5727,1.06852 1.12082,2.5425 1.21805,3.27552 0.26788,2.01951 1.12343,3.95787 2.23957,5.074 0.55202,0.55203 1.24486,1.89937 1.53964,2.9941 0.30419,1.12967 1.41685,2.89811 2.57294,4.08939 1.12034,1.15442 2.24081,2.63509 2.48995,3.29037 0.24913,0.65528 1.68276,2.17949 3.18584,3.38714 1.50307,1.20764 2.93763,2.62747 3.18791,3.15516 0.25028,0.5277 1.59147,1.5604 2.98043,2.29489 1.38896,0.73449 3.12429,1.93476 3.85628,2.66726 0.73199,0.73249 2.2365,1.57566 3.34333,1.8737 1.10683,0.29804 2.55349,0.9542 3.21478,1.45813 1.49776,1.14134 4.42328,2.34123 4.79703,1.96748 0.36887,-0.36887 3.38383,0.67368 3.80871,1.31703 0.18276,0.27675 2.1715,0.60965 4.41941,0.73978 2.24792,0.13013 4.08712,0.43178 4.08712,0.67034 0,0.6087 12.06686,0.15821 13.79621,-0.51506 z"
       id="path4907"
       inkscape:connector-curvature="0"
       transform="scale(0.26458333,0.26458333)" />
    <path
       style="fill:none;stroke:#000000;stroke-width:0.26458332px;stroke-linecap:butt;stroke-linejoin:miter;stroke-opacity:1"
       d="m 64.661197,93.060307 c 27.714659,0.265883 55.429063,0.531763 83.143193,0.79764"
       id="path4909"
       inkscape:connector-curvature="0"
       inkscape:original-d="m 64.661197,93.060307 c 27.714662,0.265615 55.429063,0.531495 83.143193,0.79764" />
    <path
       style="fill:#000000;fill-opacity:0;stroke:none"
       d="m 302.4094,486.61999 c -10.96702,-16.1102 -19.70759,-34.51885 -31.6845,-63.8462 -7.88902,-19.31751 -25.30669,-69.40887 -24.70699,-70.00858 0.17176,-0.17176 32.24782,0.0232 71.28013,0.43321 39.03231,0.41002 108.89641,1.1106 155.25355,1.55685 46.35714,0.44625 85.07216,1.14028 85.18764,1.24219 0.37715,0.33279 -20.49106,46.02346 -28.76026,62.97022 -8.88516,18.20909 -16.35647,33.52866 -24.51436,46.63459 -5.44777,8.75205 -16.59508,25.45349 -20.67189,29.69581 l -2.93872,3.05803 -6.13135,-5.52091 c -17.18356,-15.47279 -37.53393,-25.80562 -60.10238,-29.58168 -14.2503,-2.3843 -29.49983,-2.10337 -44.10665,0.87331 -4.6792,0.95356 -8.88767,2.19432 -13.59219,3.84611 -15.82732,5.55707 -30.49067,14.67374 -41.61648,25.24397 l -5.10379,4.84893 z"
       id="path4913"
       inkscape:connector-curvature="0"
       transform="scale(0.26458333,0.26458333)"
       sodipodi:nodetypes="sscsscscscssssscs" />
    <rect
       style="fill:url(#linearGradient4989);fill-opacity:1;stroke:#000000;stroke-width:0.09777962;stroke-miterlimit:4;stroke-opacity:1;stroke-dasharray:0, 1.07557601;stroke-dashoffset:0"
       id="rect4981"
       width="94.151901"
       height="19.921001"
       x="58.027794"
       y="89.830605" />
    <text
       xml:space="preserve"
       style="font-size:4.93888903px;font-style:normal;font-weight:normal;line-height:1.25;letter-spacing:0px;word-spacing:0px;fill:#000000;fill-opacity:1;stroke:none;font-family:sans-serif"
       x="103.37649"
       y="167.16516"
       id="text4993"><tspan
         sodipodi:role="line"
         id="tspan4991"
         x="103.37649"
         y="167.16516"
         style="font-size:4.93888903px">P</tspan></text>
    <text
       xml:space="preserve"
       style="font-size:4.93888903px;font-style:normal;font-weight:normal;line-height:1.25;letter-spacing:0px;word-spacing:0px;fill:#000000;fill-opacity:1;stroke:none;font-family:sans-serif"
       x="66.404167"
       y="153.37535"
       id="text4993-8"><tspan
         sodipodi:role="line"
         id="tspan4991-9"
         x="66.404167"
         y="153.37535"
         style="font-size:4.93888903px">NP</tspan></text>
    <text
       xml:space="preserve"
       style="font-size:4.93888903px;font-style:normal;font-weight:normal;line-height:1.25;letter-spacing:0px;word-spacing:0px;fill:#000000;fill-opacity:1;stroke:none;font-family:sans-serif"
       x="94.324013"
       y="134.56476"
       id="text4993-0"><tspan
         sodipodi:role="line"
         id="tspan4991-8"
         x="94.324013"
         y="134.56476"
         style="font-size:4.93888903px">NP-completo</tspan></text>
    <text
       xml:space="preserve"
       style="font-size:4.93888903px;font-style:normal;font-weight:normal;line-height:1.25;letter-spacing:0px;word-spacing:0px;fill:#000000;fill-opacity:1;stroke:none;font-family:sans-serif"
       x="98.783905"
       y="115.36357"
       id="text4993-8-3"><tspan
         sodipodi:role="line"
         id="tspan4991-9-8"
         x="98.783905"
         y="115.36357"
         style="font-size:4.93888903px">NP-hard</tspan></text>
    <text
       xml:space="preserve"
       style="font-size:4.93888903px;font-style:normal;font-weight:normal;line-height:1.25;letter-spacing:0px;word-spacing:0px;fill:#000000;fill-opacity:1;stroke:none;font-family:sans-serif"
       x="101.78802"
       y="149.43712"
       id="text4993-8-4"><tspan
         sodipodi:role="line"
         id="tspan4991-9-4"
         x="101.78802"
         y="149.43712"
         style="font-size:4.93888903px">NP-i</tspan></text>
  </g>
</svg>
